<svg width="30" height="30" viewBox="0 0 30 30" fill="none" xmlns="http://www.w3.org/2000/svg">
<g clip-path="url(#clip0_3_18)">
<path d="M20 15V14.9987C20 13.842 19.5988 12.7211 18.865 11.8269C18.1312 10.9328 17.11 10.3207 15.9755 10.095C14.841 9.86933 13.6633 10.044 12.6432 10.5892C11.623 11.1345 10.8234 12.0166 10.3807 13.0852C9.93798 14.1539 9.87948 15.343 10.2152 16.45C10.5509 17.5569 11.26 18.5132 12.2217 19.156C13.1834 19.7987 14.3383 20.0881 15.4894 19.9749C16.6406 19.8617 17.7169 19.3528 18.535 18.535C18.9992 18.0863 19.3681 17.5487 19.6198 16.9542C19.8715 16.3597 20.0008 15.7206 20 15.075L19.9987 14.9962V15H20ZM22.7 15C22.694 16.7731 22.0738 18.4893 20.9449 19.8566C19.816 21.2238 18.2482 22.1577 16.5083 22.4992C14.7685 22.8407 12.964 22.5688 11.402 21.7297C9.84009 20.8905 8.61716 19.5361 7.94138 17.8969C7.2656 16.2576 7.17872 14.4348 7.69554 12.7388C8.21236 11.0427 9.30093 9.57806 10.776 8.59421C12.2511 7.61035 14.0215 7.16803 15.786 7.34252C17.5505 7.51701 19.1999 8.29753 20.4537 9.55125C21.1658 10.2421 21.7316 11.0691 22.1177 11.983C22.5038 12.8969 22.7022 13.8791 22.7012 14.8712L22.7 15.0075V15.0012V15ZM24.8087 6.9925V6.995C24.8089 7.41144 24.6646 7.81505 24.4005 8.13705C24.1364 8.45905 23.7689 8.67952 23.3604 8.76089C22.952 8.84226 22.528 8.77949 22.1607 8.58329C21.7934 8.38708 21.5054 8.06958 21.346 7.68487C21.1865 7.30017 21.1653 6.87207 21.2861 6.47353C21.4069 6.07498 21.6621 5.73064 22.0083 5.49919C22.3545 5.26774 22.7703 5.16349 23.1847 5.20421C23.5992 5.24493 23.9867 5.42809 24.2812 5.7225C24.6012 6.03625 24.8 6.47375 24.8 6.9575V6.99375V6.9925H24.8087ZM15.0087 2.6925L13.515 2.6825C12.61 2.67583 11.9229 2.67583 11.4537 2.6825C10.9846 2.68916 10.3562 2.70875 9.56875 2.74125C8.8375 2.76625 8.14375 2.83875 7.465 2.95375L7.55625 2.94125C7.025 3.02875 6.55375 3.15375 6.1025 3.32L6.15625 3.3025C5.51875 3.55877 4.93903 3.94009 4.45127 4.42399C3.9635 4.90789 3.57758 5.48456 3.31625 6.12L3.30374 6.15375C3.1433 6.59289 3.02445 7.04613 2.94875 7.5075L2.9425 7.55375C2.83132 8.21056 2.76491 8.87418 2.74374 9.54L2.7425 9.56625C2.71 10.3546 2.69041 10.9829 2.68375 11.4512C2.67708 11.9196 2.67708 12.6067 2.68375 13.5125C2.69041 14.4183 2.69375 14.9162 2.69375 15.0062C2.69375 15.0962 2.69041 15.5942 2.68375 16.5C2.67708 17.4058 2.67708 18.0929 2.68375 18.5612C2.69041 19.0296 2.71 19.6579 2.7425 20.4462C2.7675 21.1775 2.84 21.8713 2.955 22.55L2.9425 22.4587C3.03 22.99 3.155 23.4612 3.32125 23.9125L3.30374 23.8587C3.56001 24.4962 3.94134 25.076 4.42524 25.5637C4.90914 26.0515 5.48581 26.4374 6.12125 26.6987L6.15499 26.7112C6.5525 26.86 7.02375 26.985 7.50875 27.0662L7.555 27.0725C8.14125 27.175 8.835 27.2475 9.54 27.2712L9.56625 27.2725C10.3546 27.305 10.9829 27.3246 11.4512 27.3312C11.9196 27.3379 12.6067 27.3379 13.5125 27.3312L14.9975 27.3012L16.4912 27.3112C17.3962 27.3179 18.0833 27.3179 18.5525 27.3112C19.0217 27.3046 19.65 27.285 20.4375 27.2525C21.1687 27.2275 21.8625 27.155 22.5412 27.04L22.45 27.0525C22.9812 26.965 23.4525 26.84 23.9037 26.6737L23.85 26.6912C24.4875 26.435 25.0672 26.0537 25.555 25.5698C26.0427 25.0859 26.4287 24.5092 26.69 23.8737L26.7025 23.84C26.8512 23.4425 26.9762 22.9712 27.0575 22.4862L27.0637 22.44C27.1662 21.8537 27.2387 21.16 27.2625 20.455L27.2637 20.4287C27.2962 19.6404 27.3158 19.0121 27.3225 18.5437C27.3292 18.0754 27.3292 17.3883 27.3225 16.4825C27.3158 15.5767 27.3125 15.0787 27.3125 14.9887C27.3125 14.8987 27.3158 14.4008 27.3225 13.495C27.3292 12.5892 27.3292 11.9021 27.3225 11.4337C27.3158 10.9654 27.2962 10.3371 27.2637 9.54875C27.2387 8.8175 27.1662 8.12375 27.0512 7.445L27.0637 7.53625C26.9845 7.04063 26.8576 6.5538 26.685 6.0825L26.7025 6.13625C26.4462 5.49875 26.0649 4.91903 25.581 4.43127C25.0971 3.9435 24.5204 3.55758 23.885 3.29625L23.8512 3.28375C23.4121 3.1233 22.9589 3.00445 22.4975 2.92875L22.4512 2.9225C21.7948 2.81138 21.1316 2.74497 20.4662 2.72375L20.44 2.7225C19.6517 2.69 19.0233 2.67041 18.555 2.66375C18.0867 2.65708 17.3996 2.65708 16.4937 2.66375L15.0087 2.6925ZM30 15C30 17.9817 29.9667 20.0454 29.9 21.1912C29.9591 22.3525 29.7735 23.5132 29.3554 24.5981C28.9372 25.683 28.2957 26.668 27.4725 27.4892C26.6494 28.3103 25.6628 28.9494 24.5769 29.3649C23.491 29.7804 22.3298 29.9632 21.1687 29.9012L21.1887 29.9025C20.0429 29.9692 17.9792 30.0025 14.9975 30.0025C12.0158 30.0025 9.95208 29.9692 8.80625 29.9025C7.64502 29.9616 6.48433 29.776 5.3994 29.3579C4.31447 28.9397 3.32951 28.2982 2.50834 27.4751C1.68717 26.6519 1.04811 25.6654 0.632583 24.5794C0.217056 23.4935 0.03433 22.3323 0.0962451 21.1712L0.0949951 21.1912C0.0283284 20.0454 -0.00500488 17.9817 -0.00500488 15C-0.00500488 12.0183 0.0283284 9.95458 0.0949951 8.80875C0.0359094 7.64752 0.221465 6.48683 0.639636 5.4019C1.05781 4.31697 1.69927 3.33201 2.52244 2.51084C3.34562 1.68967 4.33214 1.05061 5.41809 0.635086C6.50403 0.219559 7.66517 0.0368324 8.82625 0.0987476L8.80625 0.0974976C9.95208 0.0308309 12.0158 -0.00250244 14.9975 -0.00250244C17.9792 -0.00250244 20.0429 0.0308309 21.1887 0.0974976C22.35 0.0384119 23.5107 0.223967 24.5956 0.642139C25.6805 1.06031 26.6655 1.70177 27.4867 2.52494C28.3078 3.34812 28.9469 4.33464 29.3624 5.42059C29.7779 6.50653 29.9607 7.66767 29.8987 8.82875L29.9 8.80875C29.9667 9.95375 30 12.0175 30 15Z" fill="white"/>
</g>
<defs>
<clipPath id="clip0_3_18">
<rect width="30" height="30" fill="white"/>
</clipPath>
</defs>
</svg>
