<svg width="141" height="40" viewBox="0 0 141 40" fill="none" xmlns="http://www.w3.org/2000/svg">
<g clip-path="url(#clip0_3_64)">
<path d="M27.9135 27.7213L22.0189 21.0937H24.2789C24.9437 21.0937 25.5318 20.7274 25.8121 20.1371C26.0925 19.5483 26.0003 18.873 25.5701 18.3756L19.8053 11.7187H21.937C22.6084 11.7187 23.2135 11.3268 23.4761 10.7218C23.7358 10.1264 23.6134 9.4335 23.1633 8.95816L15.027 0.353668C14.5821 -0.118744 13.752 -0.118744 13.3064 0.353668L5.16939 8.95816C4.71931 9.4335 4.59756 10.1264 4.85655 10.7218C5.11922 11.3268 5.72499 11.7187 6.39644 11.7187H8.52808L2.76254 18.3771C2.33385 18.8737 2.24162 19.5483 2.52126 20.1379C2.80164 20.7275 3.38897 21.0937 4.05451 21.0937H6.31453L0.419873 27.7213C-0.0228355 28.2187 -0.123183 28.8998 0.157199 29.4982C0.433892 30.0878 1.04262 30.4687 1.70742 30.4687H11.8056V32.2594L9.57065 35.8044C9.17812 36.5837 9.74921 37.5006 10.6265 37.5006H17.7069C18.5842 37.5006 19.1553 36.5837 18.7628 35.8044L16.5278 32.2594V30.4687H26.626C27.2908 30.4687 27.8995 30.0878 28.1762 29.4982C28.4566 28.8998 28.3562 28.2187 27.9135 27.7213Z" fill="white"/>
</g>
<path d="M58.84 34.12C57.58 34.12 56.44 33.86 55.42 33.34C54.4 32.8 53.57 31.76 52.93 30.22L52.24 28.54H44.26L41.8 34H40.24L49.09 14.2H50.44L57.16 30.22C57.92 32.08 58.96 33.08 60.28 33.22V33.97C59.92 34.07 59.44 34.12 58.84 34.12ZM44.89 27.19H51.67L48.37 19.36L44.89 27.19ZM61.3438 18.1C61.3438 17.08 61.2038 16.33 60.9238 15.85C60.6438 15.35 60.0838 15.1 59.2438 15.1H58.9438V14.2H62.5438C63.2638 14.2 63.8138 14.32 64.1938 14.56C64.5738 14.8 64.8438 15.2 65.0038 15.76C65.1638 16.3 65.2438 17.08 65.2438 18.1V34H61.3438V18.1ZM69.5582 23.8C69.5582 22.78 69.4182 22.03 69.1382 21.55C68.8782 21.05 68.3282 20.8 67.4882 20.8H67.1882V19.9H70.1582C70.8582 19.9 71.3982 20 71.7782 20.2C72.1582 20.38 72.4582 20.7 72.6782 21.16C73.8582 20.12 75.2182 19.6 76.7582 19.6C78.7782 19.6 80.3282 20.29 81.4082 21.67C82.5082 23.03 83.0582 24.79 83.0582 26.95C83.0582 29.11 82.4982 30.88 81.3782 32.26C80.2782 33.62 78.6882 34.3 76.6082 34.3C75.7882 34.3 75.0182 34.15 74.2982 33.85C73.9782 33.73 73.6982 33.58 73.4582 33.4V39.7H69.5582V23.8ZM76.0082 32.95C78.0082 32.95 79.0082 30.95 79.0082 26.95C79.0082 25.11 78.7782 23.65 78.3182 22.57C77.8582 21.49 77.1382 20.95 76.1582 20.95C75.0382 20.95 74.0682 21.36 73.2482 22.18L73.3382 22.6C73.4182 22.84 73.4582 23.18 73.4582 23.62V32.05C73.6782 32.23 73.9182 32.38 74.1782 32.5C74.7382 32.8 75.3482 32.95 76.0082 32.95ZM88.4997 18.28C87.7797 18.28 87.2197 18.06 86.8197 17.62C86.4397 17.18 86.2497 16.64 86.2497 16C86.2497 15.48 86.3997 15.07 86.6997 14.77C87.0197 14.47 87.4197 14.32 87.8997 14.32C88.6197 14.32 89.1697 14.54 89.5497 14.98C89.9497 15.42 90.1497 15.96 90.1497 16.6C90.1497 17.12 89.9897 17.53 89.6697 17.83C89.3697 18.13 88.9797 18.28 88.4997 18.28ZM86.5497 23.8C86.5497 22.78 86.4097 22.03 86.1297 21.55C85.8497 21.05 85.2897 20.8 84.4497 20.8H84.1497V19.9H87.7497C88.4697 19.9 89.0197 20.02 89.3997 20.26C89.7797 20.5 90.0497 20.9 90.2097 21.46C90.3697 22 90.4497 22.78 90.4497 23.8V34H86.5497V23.8ZM94.5777 23.8C94.5777 22.78 94.4377 22.03 94.1577 21.55C93.8977 21.05 93.3477 20.8 92.5077 20.8H92.2077V19.9H95.1777C95.8577 19.9 96.3877 19.99 96.7677 20.17C97.1677 20.33 97.4777 20.61 97.6977 21.01C98.7177 20.07 100.178 19.6 102.078 19.6C103.978 19.6 105.398 20.05 106.338 20.95C107.298 21.83 107.778 23.22 107.778 25.12V34H103.878V25.09C103.878 23.71 103.618 22.7 103.098 22.06C102.598 21.42 101.908 21.1 101.028 21.1C100.408 21.1 99.8577 21.19 99.3777 21.37C98.9177 21.53 98.5477 21.75 98.2677 22.03L98.3577 22.45C98.4377 22.69 98.4777 23.08 98.4777 23.62V34H94.5777V23.8ZM117.444 34.3C116.064 34.3 114.854 33.98 113.814 33.34C112.774 32.7 111.964 31.83 111.384 30.73C110.824 29.61 110.544 28.35 110.544 26.95C110.544 25.39 110.824 24.06 111.384 22.96C111.964 21.86 112.754 21.03 113.754 20.47C114.754 19.89 115.884 19.6 117.144 19.6C118.384 19.6 119.504 19.85 120.504 20.35C121.504 20.85 122.294 21.56 122.874 22.48C123.454 23.38 123.744 24.42 123.744 25.6C123.744 25.98 123.724 26.41 123.684 26.89L123.624 27.49H114.594C114.594 29.39 114.884 30.78 115.464 31.66C116.044 32.52 116.854 32.95 117.894 32.95C118.854 32.95 119.654 32.74 120.294 32.32C120.954 31.88 121.584 31.26 122.184 30.46L123.114 31.15C122.534 32.05 121.804 32.8 120.924 33.4C120.064 34 118.904 34.3 117.444 34.3ZM119.694 26.14C119.694 24.26 119.474 22.93 119.034 22.15C118.594 21.35 117.964 20.95 117.144 20.95C116.384 20.95 115.764 21.36 115.284 22.18C114.824 22.98 114.594 24.3 114.594 26.14H119.694Z" fill="white"/>
<defs>
<clipPath id="clip0_3_64">
<rect width="28.3333" height="37.5" fill="white"/>
</clipPath>
</defs>
</svg>
