<svg width="30" height="30" viewBox="0 0 30 30" fill="none" xmlns="http://www.w3.org/2000/svg">
<path d="M15.0075 23.765H14.9825C14.905 23.765 7.15126 23.75 5.19501 23.2188C4.66643 23.0764 4.18453 22.7976 3.79755 22.4104C3.41058 22.0232 3.1321 21.5412 2.99 21.0125C2.63823 19.028 2.46836 17.0154 2.4825 15C2.47342 12.9813 2.64789 10.9659 3.00375 8.97875C3.14987 8.44922 3.42963 7.96613 3.81619 7.57584C4.20276 7.18556 4.68315 6.90118 5.21126 6.75C7.11376 6.25 14.6538 6.25 14.9738 6.25H15C15.0788 6.25 22.8525 6.265 24.7888 6.79625C25.8625 7.0875 26.7013 7.92625 26.9913 9C27.3538 10.9925 27.525 13.0138 27.5 15.0387C27.5088 17.055 27.3339 19.0679 26.9775 21.0525C26.8336 21.5806 26.554 22.0618 26.1665 22.4484C25.779 22.835 25.2972 23.1135 24.7688 23.2562C22.8688 23.76 15.3275 23.765 15.0075 23.765ZM12.5075 11.2563L12.5013 18.7563L19.0163 15.0063L12.5075 11.2563Z" fill="white"/>
</svg>
